<svg id="svg" xmlns="http://www.w3.org/2000/svg" xmlns:xlink="http://www.w3.org/1999/xlink" width="400" height="400" viewBox="0, 0, 400,400" version="1.1"><g id="svgg"><path id="path0" d="M224.390 86.626 C 223.559 88.812,226.052 96.922,229.439 103.052 L 231.564 106.899 231.904 112.349 C 232.441 120.957,234.628 124.813,238.096 123.261 C 241.991 121.518,242.714 121.377,243.968 122.117 C 246.325 123.510,251.977 119.999,251.994 117.132 C 251.998 116.415,252.656 115.347,254.000 113.876 C 256.391 111.260,256.472 110.458,254.576 108.145 C 253.187 106.449,252.473 106.034,245.128 102.650 C 243.388 101.848,242.125 100.785,239.728 98.104 C 238.008 96.179,235.564 93.613,234.298 92.402 C 233.032 91.191,231.997 89.982,231.998 89.716 C 232.007 87.294,225.189 84.525,224.390 86.626 M271.800 189.429 C 271.160 189.912,270.949 190.690,270.743 193.316 C 269.896 204.124,269.555 207.167,269.026 208.600 C 268.660 209.591,268.428 211.696,268.418 214.131 C 268.402 217.674,268.266 218.383,267.037 221.331 C 266.288 223.129,265.002 226.310,264.180 228.400 C 261.095 236.248,255.455 246.466,250.848 252.557 C 249.868 253.854,246.427 257.580,243.201 260.838 L 237.338 266.762 231.769 266.559 C 225.732 266.340,224.826 266.539,217.400 269.722 C 214.480 270.973,209.924 275.511,208.400 278.686 C 207.229 281.125,206.844 281.224,205.007 279.552 C 203.412 278.101,199.705 275.600,199.148 275.600 C 198.938 275.600,197.587 275.048,196.145 274.374 C 192.503 272.672,185.196 272.933,181.074 274.914 C 176.683 277.024,176.668 277.026,171.416 275.971 C 167.674 275.219,159.600 278.380,159.600 280.596 C 159.600 280.845,158.992 282.297,158.249 283.824 C 157.506 285.351,156.775 287.290,156.625 288.133 C 156.359 289.621,156.326 289.647,155.476 289.038 C 154.019 287.995,149.104 285.694,147.400 285.258 C 146.520 285.032,144.900 284.617,143.800 284.336 C 137.404 282.701,125.995 285.167,122.892 288.856 C 122.381 289.463,120.997 290.416,119.817 290.975 C 116.917 292.346,113.344 296.655,112.248 300.100 C 111.930 301.098,111.437 300.976,109.825 299.500 C 108.438 298.230,106.416 297.087,103.600 295.980 C 99.705 294.450,87.200 295.374,87.200 297.192 C 87.200 297.387,86.869 297.651,86.463 297.780 C 85.818 297.985,83.084 300.511,80.770 303.042 C 79.338 304.609,80.490 307.600,82.526 307.600 C 82.951 307.600,83.200 307.921,83.200 308.467 C 83.200 308.943,83.313 309.221,83.451 309.083 C 83.589 308.945,84.090 309.410,84.564 310.116 C 85.039 310.822,85.794 311.453,86.242 311.518 C 86.873 311.610,87.025 311.880,86.918 312.718 C 86.791 313.716,89.364 317.133,90.314 317.229 C 90.472 317.245,91.320 318.132,92.200 319.200 C 93.080 320.268,93.980 321.168,94.200 321.200 C 94.420 321.232,95.320 322.132,96.200 323.200 C 97.080 324.268,97.940 325.155,98.112 325.171 C 98.284 325.187,98.991 325.845,99.683 326.633 C 100.637 327.720,101.173 328.022,101.902 327.883 C 102.545 327.760,102.942 327.914,103.102 328.349 C 103.430 329.241,104.075 329.621,104.850 329.380 C 105.279 329.247,105.578 329.473,105.727 330.043 C 105.917 330.769,106.152 330.870,107.177 330.665 C 108.064 330.487,108.400 330.570,108.400 330.967 C 108.400 331.268,108.670 331.618,109.000 331.745 C 109.330 331.871,109.600 332.258,109.600 332.605 C 109.600 332.983,109.880 333.188,110.300 333.118 C 110.773 333.038,110.963 333.224,110.885 333.689 C 110.762 334.426,112.407 335.090,113.177 334.614 C 113.410 334.470,113.600 334.633,113.600 334.976 C 113.600 335.319,113.876 335.600,114.213 335.600 C 114.549 335.600,114.941 335.915,115.083 336.300 C 115.436 337.256,116.065 337.624,116.900 337.364 C 117.362 337.220,117.600 337.360,117.600 337.773 C 117.600 338.138,117.942 338.400,118.418 338.400 C 118.974 338.400,119.198 338.623,119.118 339.100 C 119.025 339.648,119.283 339.799,120.306 339.796 C 121.185 339.793,121.550 339.954,121.421 340.290 C 121.316 340.564,121.628 340.997,122.115 341.252 C 122.602 341.508,123.150 341.971,123.333 342.283 C 123.523 342.604,124.127 342.797,124.733 342.729 C 125.417 342.652,125.764 342.787,125.700 343.104 C 125.645 343.377,125.960 343.600,126.400 343.600 C 126.904 343.600,127.200 343.867,127.200 344.320 C 127.200 344.779,127.706 345.222,128.600 345.546 C 129.370 345.824,130.000 346.220,130.000 346.426 C 130.000 346.632,130.521 346.800,131.157 346.800 C 131.842 346.800,132.413 347.058,132.556 347.431 C 132.735 347.895,133.238 348.030,134.469 347.941 C 135.668 347.854,136.194 347.987,136.330 348.410 C 136.613 349.290,137.293 349.633,138.289 349.399 C 138.966 349.240,139.123 349.335,138.946 349.796 C 138.779 350.233,139.060 350.472,139.948 350.650 C 140.627 350.785,141.388 351.145,141.640 351.448 C 141.892 351.752,142.802 352.000,143.662 352.000 C 144.670 352.000,145.305 352.209,145.451 352.589 C 145.576 352.913,146.277 353.291,147.011 353.428 C 147.744 353.566,148.441 353.931,148.560 354.239 C 148.694 354.588,149.366 354.800,150.338 354.800 C 151.275 354.800,152.112 355.053,152.426 355.432 C 152.821 355.907,153.526 356.031,155.276 355.932 C 157.286 355.818,157.601 355.896,157.601 356.510 C 157.600 356.978,158.006 357.301,158.791 357.458 C 159.446 357.589,160.188 357.945,160.440 358.248 C 160.732 358.601,161.732 358.800,163.206 358.800 C 164.895 358.800,165.577 358.962,165.746 359.404 C 165.873 359.736,166.118 359.984,166.289 359.956 C 168.168 359.648,172.400 360.081,172.400 360.582 C 172.400 361.409,174.693 361.744,178.655 361.497 C 181.616 361.312,182.002 361.365,181.907 361.944 C 181.809 362.544,183.536 362.610,202.000 362.711 C 222.688 362.824,224.117 362.770,223.774 361.877 C 223.619 361.473,224.383 361.397,227.330 361.526 C 231.116 361.692,232.800 361.304,232.800 360.267 C 232.800 359.895,233.490 359.806,235.425 359.929 C 237.732 360.076,238.073 360.006,238.245 359.348 C 238.411 358.708,238.760 358.620,240.654 358.739 C 242.486 358.854,243.001 358.736,243.637 358.053 C 244.061 357.597,244.674 357.330,245.004 357.457 C 245.927 357.811,247.600 357.254,247.600 356.592 C 247.600 356.136,248.144 356.000,249.971 356.000 C 251.546 356.000,252.544 355.798,252.943 355.400 C 253.273 355.070,254.203 354.800,255.009 354.800 C 256.136 354.800,256.523 354.616,256.683 354.004 C 256.797 353.567,257.061 353.314,257.268 353.442 C 257.907 353.837,259.600 353.220,259.600 352.592 C 259.600 352.150,260.095 352.000,261.557 352.000 C 262.928 352.000,263.583 351.820,263.745 351.400 C 263.871 351.070,264.420 350.800,264.965 350.800 C 265.509 350.800,266.190 350.485,266.477 350.100 C 266.765 349.715,267.225 349.382,267.500 349.360 C 267.775 349.338,268.270 349.293,268.600 349.260 C 268.930 349.227,269.200 348.941,269.200 348.625 C 269.200 348.269,269.695 348.003,270.500 347.925 C 271.278 347.850,271.760 347.599,271.700 347.300 C 271.639 346.993,272.044 346.800,272.751 346.800 C 273.384 346.800,274.120 346.537,274.387 346.215 C 274.654 345.894,275.261 345.513,275.736 345.370 C 276.211 345.226,277.085 344.589,277.677 343.954 C 278.322 343.264,279.166 342.800,279.777 342.800 C 280.551 342.800,280.800 342.595,280.800 341.957 C 280.800 341.260,280.971 341.156,281.788 341.361 C 282.547 341.552,282.919 341.390,283.396 340.662 C 283.836 339.991,284.288 339.766,284.944 339.891 C 285.618 340.020,286.155 339.731,286.910 338.834 C 287.481 338.155,288.294 337.600,288.716 337.600 C 289.546 337.600,291.799 335.722,291.802 335.026 C 291.803 334.792,292.259 334.653,292.814 334.717 C 293.598 334.808,294.226 334.382,295.612 332.821 C 296.596 331.714,297.700 330.806,298.067 330.804 C 299.221 330.797,299.957 330.354,299.743 329.796 C 299.600 329.422,299.778 329.321,300.328 329.465 C 301.248 329.706,302.925 328.925,302.604 328.406 C 302.483 328.211,302.970 327.995,303.685 327.926 C 304.723 327.825,305.068 327.557,305.391 326.600 C 305.637 325.872,309.646 321.547,315.589 315.601 C 321.545 309.641,325.396 305.487,325.417 304.999 C 325.437 304.558,326.325 303.348,327.392 302.311 C 328.459 301.275,329.356 300.105,329.385 299.713 C 329.414 299.321,330.385 298.052,331.544 296.894 C 333.216 295.222,333.594 294.612,333.379 293.933 C 333.160 293.244,333.238 293.129,333.783 293.338 C 334.903 293.768,336.000 292.901,336.000 291.586 C 336.000 290.934,336.145 290.445,336.322 290.500 C 336.826 290.656,338.800 288.360,338.800 287.618 C 338.800 287.251,339.371 286.368,340.069 285.654 C 341.101 284.599,341.371 283.950,341.518 282.187 C 341.617 280.993,341.946 279.811,342.249 279.559 C 342.552 279.308,342.800 278.693,342.800 278.194 C 342.800 277.694,343.070 277.182,343.400 277.055 C 343.730 276.929,344.000 276.459,344.000 276.013 C 344.000 275.566,344.360 274.840,344.800 274.400 C 345.240 273.960,345.600 273.262,345.600 272.849 C 345.600 272.436,345.870 271.874,346.200 271.600 C 346.530 271.326,346.800 270.693,346.800 270.194 C 346.800 269.694,347.070 269.182,347.400 269.055 C 347.730 268.929,348.000 268.464,348.000 268.022 C 348.000 267.581,348.359 266.630,348.799 265.910 C 349.238 265.189,349.598 264.217,349.599 263.749 C 349.599 263.281,349.870 262.674,350.200 262.400 C 350.873 261.842,351.018 259.382,350.400 259.000 C 349.724 258.582,349.956 258.000,350.800 258.000 C 351.240 258.000,351.600 257.820,351.600 257.600 C 351.600 257.380,351.874 257.200,352.210 257.200 C 352.859 257.200,353.600 255.677,353.600 254.345 C 353.600 253.904,353.870 253.273,354.200 252.943 C 354.583 252.560,354.800 251.574,354.800 250.220 C 354.800 248.822,355.005 247.928,355.400 247.600 C 355.783 247.282,356.000 246.397,356.000 245.151 C 356.000 243.733,356.219 242.981,356.800 242.400 C 357.403 241.797,357.600 241.067,357.600 239.433 C 357.600 238.242,357.774 237.207,357.986 237.133 C 358.199 237.060,358.495 235.254,358.644 233.121 C 358.832 230.424,359.081 229.178,359.458 229.033 C 359.862 228.878,360.000 227.853,360.000 225.013 L 360.000 221.200 353.971 221.200 C 347.007 221.200,345.928 221.583,342.659 225.219 C 339.812 228.386,339.600 229.115,339.600 235.751 L 339.600 241.582 338.500 242.291 C 335.709 244.090,334.209 245.926,332.105 250.114 C 331.237 251.842,331.019 252.026,330.067 251.832 C 320.568 249.896,316.296 250.583,308.400 255.317 C 304.142 257.870,303.604 258.322,303.584 259.362 C 303.576 259.823,302.979 261.190,302.258 262.400 L 300.947 264.600 298.512 264.836 C 297.172 264.965,295.523 265.301,294.845 265.581 C 293.221 266.254,292.400 265.890,292.400 264.497 C 292.400 263.877,292.040 262.663,291.600 261.800 C 291.160 260.937,290.800 259.987,290.800 259.689 C 290.800 258.468,283.293 252.014,279.144 249.667 L 276.887 248.391 277.204 246.896 C 277.661 244.739,278.467 240.519,278.864 238.200 C 279.327 235.496,280.399 223.751,280.744 217.600 C 281.150 210.360,280.631 197.403,279.855 195.400 C 279.514 194.520,279.227 193.153,279.218 192.362 C 279.195 190.526,277.906 189.181,276.877 189.919 C 275.520 190.894,275.132 190.884,274.054 189.852 C 272.780 188.632,272.842 188.643,271.800 189.429 M55.049 264.800 C 55.424 266.357,55.971 266.712,56.627 265.824 C 57.461 264.694,57.332 264.281,56.214 264.495 C 55.672 264.599,55.133 264.485,55.018 264.242 C 54.902 263.999,54.916 264.250,55.049 264.800 M64.629 283.028 C 63.965 283.693,64.290 284.859,65.302 285.442 C 65.576 285.599,65.673 285.587,65.517 285.414 C 65.361 285.242,65.616 284.791,66.084 284.413 C 66.619 283.979,66.839 283.479,66.679 283.062 C 66.359 282.227,65.445 282.212,64.629 283.028 " stroke="none" fill="#d0e4fb" fill-rule="evenodd"></path><path id="path1" d="M188.710 44.950 C 183.524 45.343,181.854 45.608,181.279 46.129 C 180.459 46.871,176.400 47.097,176.400 46.400 C 176.400 45.788,174.561 45.924,174.020 46.576 C 173.757 46.893,173.297 47.059,172.999 46.944 C 172.700 46.830,171.858 47.007,171.128 47.339 C 170.398 47.671,168.810 48.055,167.600 48.194 C 166.390 48.332,165.040 48.602,164.600 48.794 C 164.160 48.985,163.142 49.250,162.339 49.382 C 161.535 49.514,160.776 49.887,160.651 50.211 C 160.524 50.543,159.917 50.800,159.262 50.800 C 158.622 50.800,157.885 51.057,157.624 51.371 C 157.310 51.750,156.705 51.869,155.826 51.727 C 155.058 51.602,154.386 51.698,154.227 51.956 C 154.076 52.200,153.495 52.400,152.934 52.400 C 152.374 52.400,151.116 52.940,150.138 53.600 C 149.160 54.260,147.863 54.800,147.256 54.800 C 146.649 54.800,145.804 55.064,145.376 55.387 C 144.949 55.710,144.139 55.980,143.576 55.987 C 143.014 55.994,142.204 56.264,141.776 56.587 C 141.349 56.910,140.725 57.180,140.389 57.187 C 140.053 57.194,139.333 57.512,138.789 57.894 C 137.546 58.767,134.217 59.966,132.473 60.170 C 131.743 60.256,130.828 60.612,130.441 60.963 C 130.054 61.313,129.434 61.600,129.065 61.600 C 128.695 61.600,128.084 61.960,127.707 62.400 C 127.330 62.840,126.799 63.200,126.525 63.200 C 126.252 63.200,125.840 63.551,125.611 63.980 C 125.381 64.409,124.778 64.994,124.271 65.280 C 122.036 66.541,120.400 67.707,120.400 68.040 C 120.400 68.238,119.962 68.400,119.427 68.400 C 118.803 68.400,118.148 68.830,117.600 69.600 C 117.130 70.260,116.408 70.800,115.996 70.800 C 115.584 70.800,115.149 70.959,115.029 71.154 C 114.909 71.348,113.997 71.889,113.003 72.357 C 112.008 72.824,110.555 73.810,109.774 74.547 C 108.992 75.284,107.635 76.103,106.758 76.365 C 105.735 76.672,105.003 77.194,104.717 77.822 C 104.472 78.360,104.055 78.800,103.790 78.800 C 103.525 78.800,102.850 79.160,102.291 79.600 C 101.731 80.040,101.028 80.400,100.728 80.400 C 100.032 80.400,86.803 93.754,86.793 94.467 C 86.788 94.760,85.258 96.583,83.393 98.518 C 81.527 100.453,79.997 102.253,79.994 102.518 C 79.990 102.783,79.262 103.810,78.376 104.800 C 77.490 105.790,76.429 107.230,76.019 108.000 C 75.609 108.770,74.704 109.940,74.008 110.600 C 73.312 111.260,72.362 112.475,71.897 113.300 C 71.433 114.125,70.822 114.800,70.540 114.800 C 70.259 114.800,69.814 115.205,69.553 115.700 C 69.291 116.195,68.565 117.226,67.939 117.991 C 67.312 118.756,66.800 119.619,66.800 119.909 C 66.800 120.198,66.350 120.920,65.800 121.513 C 65.250 122.107,64.800 122.843,64.800 123.150 C 64.800 123.457,64.350 124.125,63.800 124.635 C 63.250 125.145,62.800 125.930,62.800 126.381 C 62.800 126.831,62.659 127.200,62.486 127.200 C 62.314 127.200,61.661 128.325,61.036 129.700 C 60.411 131.075,59.478 133.010,58.961 134.000 C 56.627 138.478,55.200 141.621,55.200 142.285 C 55.200 142.683,54.830 143.238,54.378 143.521 C 53.844 143.855,53.637 144.287,53.787 144.760 C 53.918 145.171,53.753 145.707,53.409 145.993 C 53.074 146.271,52.800 146.992,52.800 147.595 C 52.800 148.198,52.440 149.150,52.000 149.709 C 51.560 150.269,51.200 151.019,51.200 151.377 C 51.200 151.735,50.899 152.488,50.530 153.050 C 50.082 153.735,49.880 154.808,49.919 156.302 C 49.971 158.265,49.496 160.567,47.178 169.600 C 46.981 170.370,46.815 171.729,46.810 172.620 C 46.804 173.511,46.651 174.411,46.469 174.620 C 45.979 175.184,45.112 180.917,44.931 184.800 C 44.675 190.279,44.591 191.142,44.288 191.446 C 43.686 192.048,43.954 216.297,44.570 216.912 C 44.991 217.334,45.186 218.982,45.318 223.241 C 45.416 226.408,45.712 229.810,45.976 230.800 C 46.240 231.790,46.596 233.686,46.767 235.013 C 46.938 236.340,47.286 237.813,47.539 238.287 C 47.793 238.760,48.000 239.749,48.000 240.485 C 48.000 241.220,48.245 242.177,48.545 242.611 C 48.844 243.045,49.178 244.347,49.286 245.504 C 49.401 246.728,49.783 247.939,50.199 248.399 C 50.799 249.062,50.854 249.469,50.536 250.895 C 50.156 252.602,50.921 256.000,51.686 256.000 C 51.859 256.000,52.000 256.247,52.000 256.548 C 52.000 258.101,54.301 264.000,54.907 264.000 C 55.115 264.000,55.166 264.315,55.019 264.700 C 54.805 265.261,54.852 265.301,55.256 264.900 C 56.490 263.675,57.644 264.460,56.613 265.824 C 55.707 267.021,57.059 271.777,58.463 272.333 C 58.649 272.407,58.800 272.657,58.800 272.889 C 58.800 273.543,61.927 279.908,62.389 280.193 C 62.615 280.333,62.800 280.713,62.800 281.038 C 62.800 282.343,64.029 283.628,64.668 282.989 C 65.451 282.206,66.365 282.242,66.682 283.070 C 66.845 283.495,66.640 283.970,66.119 284.370 C 65.152 285.113,67.564 290.653,68.670 290.229 C 68.995 290.104,69.200 290.317,69.200 290.780 C 69.200 292.062,69.669 292.846,70.662 293.223 C 71.186 293.423,71.781 293.994,71.985 294.493 C 72.188 294.992,73.175 296.299,74.178 297.397 C 75.180 298.496,76.000 299.570,76.000 299.783 C 76.000 299.997,76.357 300.538,76.794 300.986 C 77.230 301.434,78.008 302.320,78.521 302.956 C 79.466 304.126,81.600 303.662,81.600 302.288 C 81.600 301.723,85.537 298.074,86.463 297.780 C 86.869 297.651,87.200 297.387,87.200 297.192 C 87.200 295.374,99.705 294.450,103.600 295.980 C 106.416 297.087,108.438 298.230,109.825 299.500 C 111.437 300.976,111.930 301.098,112.248 300.100 C 113.344 296.655,116.917 292.346,119.817 290.975 C 120.997 290.416,122.381 289.463,122.892 288.856 C 125.995 285.167,137.404 282.701,143.800 284.336 C 144.900 284.617,146.520 285.032,147.400 285.258 C 149.104 285.694,154.019 287.995,155.476 289.038 C 156.326 289.647,156.359 289.621,156.625 288.133 C 156.775 287.290,157.506 285.351,158.249 283.824 C 158.992 282.297,159.600 280.845,159.600 280.596 C 159.600 278.380,167.674 275.219,171.416 275.971 C 176.668 277.026,176.683 277.024,181.074 274.914 C 185.196 272.933,192.503 272.672,196.145 274.374 C 197.587 275.048,198.938 275.600,199.148 275.600 C 199.705 275.600,203.412 278.101,205.007 279.552 C 206.844 281.224,207.229 281.125,208.400 278.686 C 212.057 271.067,221.466 266.185,231.769 266.559 L 237.338 266.762 243.201 260.838 C 246.427 257.580,249.868 253.854,250.848 252.557 C 255.455 246.466,261.095 236.248,264.180 228.400 C 265.002 226.310,266.288 223.129,267.037 221.331 C 268.266 218.383,268.402 217.674,268.418 214.131 C 268.428 211.696,268.660 209.591,269.026 208.600 C 269.554 207.168,269.887 204.213,270.743 193.332 C 270.884 191.535,271.090 189.999,271.200 189.919 C 271.310 189.839,271.722 189.527,272.114 189.226 C 272.743 188.744,272.973 188.817,274.029 189.828 C 275.038 190.795,275.338 190.899,275.915 190.486 C 277.219 189.551,277.633 189.506,278.415 190.213 C 278.908 190.660,279.207 191.458,279.218 192.362 C 279.227 193.153,279.514 194.520,279.855 195.400 C 280.631 197.403,281.150 210.360,280.744 217.600 C 280.399 223.751,279.327 235.496,278.864 238.200 C 278.467 240.519,277.661 244.739,277.204 246.896 L 276.887 248.391 279.144 249.667 C 283.293 252.014,290.800 258.468,290.800 259.689 C 290.800 259.987,291.160 260.937,291.600 261.800 C 292.040 262.663,292.400 263.877,292.400 264.497 C 292.400 265.890,293.221 266.254,294.845 265.581 C 295.523 265.301,297.172 264.965,298.512 264.836 L 300.947 264.600 302.258 262.400 C 302.979 261.190,303.576 259.823,303.584 259.362 C 303.604 258.322,304.142 257.870,308.400 255.317 C 316.296 250.583,320.568 249.896,330.067 251.832 C 331.019 252.026,331.237 251.842,332.105 250.114 C 334.209 245.926,335.709 244.090,338.500 242.291 L 339.600 241.582 339.600 235.751 C 339.600 229.115,339.812 228.386,342.659 225.219 C 345.922 221.589,347.013 221.200,353.920 221.200 L 359.897 221.200 360.162 219.300 C 360.307 218.255,360.690 217.051,361.013 216.624 C 361.939 215.398,361.869 193.098,360.934 191.400 C 360.448 190.517,360.211 188.699,360.037 184.520 C 359.881 180.796,359.628 178.668,359.300 178.340 C 358.997 178.037,358.796 176.731,358.790 175.020 C 358.785 173.469,358.594 171.480,358.365 170.600 C 358.136 169.720,357.779 168.202,357.573 167.228 C 357.366 166.253,356.928 165.044,356.599 164.542 C 356.269 164.039,356.000 162.942,356.000 162.103 C 356.000 161.264,355.753 160.223,355.450 159.789 C 354.883 158.975,354.265 156.220,354.224 154.317 C 354.203 153.355,353.111 152.047,352.300 152.013 C 352.135 152.006,352.000 151.584,352.000 151.076 C 352.000 150.569,351.736 149.804,351.413 149.376 C 351.090 148.949,350.820 148.224,350.813 147.764 C 350.806 147.304,350.254 145.836,349.588 144.501 C 348.921 143.167,348.409 141.923,348.451 141.737 C 348.604 141.058,345.007 133.375,344.344 132.965 C 344.155 132.848,344.000 132.496,344.000 132.183 C 344.000 131.869,343.473 130.526,342.830 129.197 C 342.186 127.868,341.545 126.260,341.405 125.624 C 341.265 124.987,340.892 124.367,340.576 124.246 C 340.259 124.124,340.000 123.674,340.000 123.245 C 340.000 122.111,338.219 118.745,337.026 117.625 C 336.462 117.094,336.000 116.443,336.000 116.178 C 336.000 115.912,335.370 115.214,334.600 114.627 C 333.830 114.040,333.200 113.332,333.200 113.054 C 333.200 112.777,332.644 112.021,331.964 111.375 C 331.285 110.729,330.266 109.390,329.701 108.400 C 329.136 107.410,328.001 105.880,327.180 105.000 C 326.359 104.120,325.413 102.860,325.078 102.200 C 324.374 100.814,310.340 86.800,309.656 86.800 C 309.405 86.800,309.200 86.545,309.200 86.233 C 309.200 85.922,309.060 85.607,308.888 85.533 C 308.717 85.460,307.869 84.545,307.004 83.500 C 306.139 82.455,305.216 81.600,304.955 81.600 C 304.693 81.600,304.133 81.015,303.711 80.300 C 303.289 79.585,302.236 78.640,301.372 78.200 C 300.507 77.760,299.371 77.085,298.846 76.700 C 298.321 76.315,297.592 76.000,297.226 76.000 C 296.859 76.000,295.758 75.197,294.780 74.215 C 293.801 73.233,292.517 72.321,291.928 72.189 C 291.338 72.057,290.641 71.690,290.379 71.374 C 290.117 71.058,289.627 70.800,289.291 70.800 C 288.956 70.800,288.048 70.148,287.275 69.352 C 285.849 67.885,283.821 66.800,282.502 66.800 C 282.104 66.800,281.470 66.440,281.093 66.000 C 280.716 65.560,280.181 65.198,279.904 65.195 C 279.627 65.192,278.665 64.517,277.767 63.695 C 276.868 62.873,275.761 61.873,275.306 61.474 C 274.417 60.693,269.217 58.800,267.962 58.800 C 267.543 58.800,266.840 58.440,266.400 58.000 C 265.960 57.560,265.285 57.194,264.900 57.187 C 264.515 57.180,263.851 56.910,263.424 56.587 C 262.996 56.264,262.164 56.000,261.573 56.000 C 260.982 56.000,260.274 55.730,260.000 55.400 C 259.716 55.058,258.844 54.800,257.971 54.800 C 257.123 54.800,256.297 54.562,256.120 54.268 C 255.722 53.605,253.314 52.400,252.388 52.400 C 252.008 52.400,251.474 52.130,251.200 51.800 C 250.604 51.081,249.538 51.022,248.889 51.671 C 248.529 52.031,248.246 51.985,247.678 51.471 C 247.258 51.090,246.278 50.800,245.413 50.800 C 244.500 50.800,243.707 50.552,243.437 50.183 C 243.177 49.828,241.935 49.417,240.513 49.216 C 239.153 49.024,237.447 48.684,236.720 48.460 C 235.994 48.237,234.590 47.830,233.600 47.556 C 232.610 47.282,231.516 46.820,231.169 46.529 C 230.420 45.902,229.347 45.839,229.000 46.400 C 228.568 47.100,223.954 46.890,223.410 46.147 C 222.417 44.788,200.711 44.040,188.710 44.950 M228.316 86.373 C 230.077 87.290,232.001 89.037,231.998 89.716 C 231.997 89.982,233.032 91.191,234.298 92.402 C 235.564 93.613,238.008 96.179,239.728 98.104 C 242.125 100.785,243.388 101.848,245.128 102.650 C 252.473 106.034,253.187 106.449,254.576 108.145 C 256.472 110.458,256.391 111.260,254.000 113.876 C 252.656 115.347,251.998 116.415,251.994 117.132 C 251.985 118.613,251.702 118.957,248.797 121.002 C 245.945 123.010,245.610 123.088,243.968 122.117 C 242.714 121.377,241.991 121.518,238.096 123.261 C 234.628 124.813,232.441 120.957,231.904 112.349 L 231.564 106.899 229.439 103.052 C 227.471 99.491,224.000 90.143,224.000 88.405 C 224.000 85.666,225.554 84.935,228.316 86.373 M358.700 233.733 C 358.222 234.899,358.320 237.040,358.827 236.533 C 359.062 236.298,359.197 235.407,359.127 234.553 C 359.033 233.406,358.922 233.192,358.700 233.733 M351.632 257.500 C 351.614 257.775,351.240 258.000,350.800 258.000 C 349.862 258.000,349.764 258.506,350.572 259.177 C 351.215 259.710,352.224 258.378,351.858 257.478 C 351.713 257.122,351.655 257.128,351.632 257.500 M82.200 308.400 C 82.598 308.840,82.986 309.200,83.062 309.200 C 83.138 309.200,83.200 308.840,83.200 308.400 C 83.200 307.847,82.933 307.600,82.338 307.600 C 81.501 307.600,81.497 307.624,82.200 308.400 M85.600 311.751 C 85.600 312.361,86.734 312.750,86.941 312.210 C 87.102 311.791,86.929 311.600,86.387 311.600 C 85.954 311.600,85.600 311.668,85.600 311.751 M107.600 330.730 C 107.600 330.912,108.050 331.483,108.600 332.000 C 109.150 332.517,109.600 332.722,109.600 332.457 C 109.600 332.192,109.330 331.871,109.000 331.745 C 108.670 331.618,108.400 331.264,108.400 330.957 C 108.400 330.651,108.220 330.400,108.000 330.400 C 107.780 330.400,107.600 330.549,107.600 330.730 M116.800 337.577 C 116.800 337.980,118.370 339.200,118.889 339.200 C 119.060 339.200,119.200 339.020,119.200 338.800 C 119.200 338.580,118.840 338.400,118.400 338.400 C 117.956 338.400,117.600 338.133,117.600 337.800 C 117.600 337.470,117.420 337.200,117.200 337.200 C 116.980 337.200,116.800 337.370,116.800 337.577 M280.800 341.800 C 280.800 342.130,280.961 342.400,281.157 342.400 C 281.354 342.400,281.618 342.130,281.745 341.800 C 281.885 341.435,281.745 341.200,281.387 341.200 C 281.064 341.200,280.800 341.470,280.800 341.800 M126.000 343.751 C 126.000 343.834,126.270 344.126,126.600 344.400 C 127.091 344.808,127.200 344.780,127.200 344.249 C 127.200 343.892,126.930 343.600,126.600 343.600 C 126.270 343.600,126.000 343.668,126.000 343.751 M232.684 360.400 C 232.569 360.840,232.616 361.200,232.788 361.200 C 233.284 361.200,234.021 360.154,233.730 359.863 C 233.262 359.395,232.898 359.582,232.684 360.400 M180.796 361.796 C 181.296 362.398,182.000 362.269,182.000 361.576 C 182.000 361.369,181.618 361.200,181.151 361.200 C 180.445 361.200,180.385 361.300,180.796 361.796 " stroke="none" fill="#0c479e" fill-rule="evenodd"></path></g></svg>